<?xml version="1.0" standalone="no"?>
<!DOCTYPE svg PUBLIC "-//W3C//DTD SVG 20010904//EN"
 "http://www.w3.org/TR/2001/REC-SVG-20010904/DTD/svg10.dtd">
<svg version="1.0" xmlns="http://www.w3.org/2000/svg"
 width="1936.000000pt" height="1936.000000pt" viewBox="0 0 1936.000000 1936.000000"
 preserveAspectRatio="xMidYMid meet">
<metadata>
Created by potrace 1.11, written by Peter Selinger 2001-2013
</metadata>
<g transform="translate(0.000000,1936.000000) scale(0.100000,-0.100000)"
fill="#000000" stroke="none">
<path d="M2349 14076 c-2 -2 -26 -7 -54 -10 -58 -6 -194 -40 -246 -61 -20 -7
-39 -11 -43 -8 -3 4 -6 1 -6 -5 0 -7 -7 -12 -15 -12 -16 0 -145 -67 -203 -106
-98 -65 -138 -98 -225 -189 -95 -99 -97 -101 -97 -108 0 -7 -22 -36 -47 -62
-7 -8 -13 -18 -13 -24 0 -5 -6 -16 -13 -23 -7 -7 -23 -33 -36 -58 -12 -25 -26
-52 -31 -60 -5 -8 -19 -42 -31 -75 -12 -33 -26 -69 -30 -80 -9 -20 -32 -118
-44 -185 -8 -44 -16 -128 -15 -155 1 -22 1 -23 -3 -80 -2 -22 1 -46 6 -52 5
-7 6 -13 1 -13 -11 0 -11 -131 0 -148 4 -7 4 -12 -1 -12 -4 0 -7 -37 -5 -82 3
-95 3 -86 -1 -158 -1 -30 1 -61 6 -67 5 -7 6 -13 1 -13 -5 0 -8 -37 -6 -82 3
-95 3 -86 -1 -158 -1 -30 1 -61 6 -67 5 -7 6 -13 1 -13 -5 0 -8 -37 -6 -82 1
-46 2 -87 2 -93 0 -23 0 -141 0 -155 0 -8 -1 -59 -3 -112 -1 -54 2 -98 7 -98
5 0 5 -5 0 -12 -11 -15 -11 -89 0 -106 4 -7 3 -12 -1 -12 -5 0 -7 -30 -6 -67
4 -82 4 -67 0 -185 -1 -54 2 -98 7 -98 5 0 5 -5 0 -12 -11 -15 -11 -89 0 -106
4 -7 3 -12 -1 -12 -5 0 -7 -30 -6 -67 4 -82 4 -67 0 -185 -1 -54 2 -98 7 -98
5 0 5 -5 0 -12 -11 -15 -11 -89 0 -106 4 -7 3 -12 -1 -12 -5 0 -7 -30 -6 -67
4 -82 4 -67 0 -185 -1 -54 2 -98 7 -98 5 0 5 -5 0 -12 -11 -15 -11 -89 0 -106
4 -7 3 -12 -1 -12 -5 0 -7 -30 -6 -67 4 -82 4 -67 0 -185 -1 -54 2 -98 7 -98
5 0 5 -5 0 -12 -11 -15 -11 -89 0 -106 4 -7 4 -12 -1 -12 -10 0 -10 -261 1
-278 4 -7 4 -12 -1 -12 -4 0 -7 -37 -5 -82 3 -95 3 -86 -1 -158 -1 -30 1 -61
6 -67 5 -7 6 -13 1 -13 -5 0 -8 -37 -6 -82 3 -95 3 -86 -1 -158 -1 -30 1 -61
6 -67 5 -7 6 -13 1 -13 -5 0 -8 -37 -6 -82 3 -95 3 -86 -1 -158 -1 -30 1 -61
6 -67 5 -7 6 -13 1 -13 -5 0 -8 -37 -6 -82 1 -46 2 -87 2 -93 0 -23 0 -141 0
-155 0 -8 -1 -59 -3 -112 -1 -54 2 -98 7 -98 5 0 5 -5 0 -12 -11 -15 -11 -89
0 -106 4 -7 3 -12 -1 -12 -5 0 -7 -30 -6 -67 4 -82 4 -67 0 -185 -1 -54 2 -98
7 -98 5 0 5 -5 0 -12 -11 -15 -11 -89 0 -106 4 -7 3 -12 -1 -12 -5 0 -7 -30
-6 -67 4 -82 4 -67 0 -185 -1 -54 1 -98 6 -98 4 0 5 -6 0 -12 -10 -17 -10 -38
-1 -65 4 -13 4 -23 0 -23 -4 0 -8 -30 -8 -67 -1 -81 -6 -145 -12 -157 -3 -5
-7 -27 -9 -49 -2 -21 -6 -44 -10 -51 -4 -6 -8 -15 -9 -21 -11 -61 -68 -179
-132 -273 -75 -109 -256 -272 -362 -327 -19 -10 -37 -21 -40 -24 -6 -7 -80
-43 -185 -91 -38 -18 -135 -54 -215 -81 l-145 -49 3940 3 c2167 1 3951 6 3965
10 14 4 39 10 55 12 50 9 173 45 213 62 20 9 39 17 42 18 9 2 115 55 135 68
51 31 143 94 170 117 43 36 166 163 190 196 11 15 25 32 30 38 18 20 65 95 65
105 0 5 4 11 8 13 14 5 105 205 116 253 2 6 8 28 14 50 6 22 14 56 17 75 3 19
8 42 11 52 3 9 6 41 8 71 2 31 7 60 10 65 4 6 2 14 -4 17 -6 4 -7 12 -3 18 7
10 10 6372 3 6372 -1 0 -3 16 -5 36 -2 32 -9 77 -22 148 -2 13 -8 32 -14 43
-5 10 -8 18 -5 18 8 0 -41 133 -78 210 -75 158 -130 235 -262 365 -87 87 -242
196 -339 239 -33 15 -67 30 -75 35 -8 5 -42 16 -75 25 -33 9 -67 20 -75 23 -8
3 -23 7 -32 8 -10 2 -19 3 -20 5 -2 1 -12 3 -23 6 -11 2 -36 7 -55 11 -36 8
-5623 16 -5631 9z m4391 -2230 c19 -4 40 -8 45 -10 28 -8 51 -18 65 -27 8 -5
23 -12 33 -15 9 -4 17 -10 17 -15 0 -5 5 -9 10 -9 11 0 70 -56 70 -66 0 -3 9
-14 19 -25 28 -30 61 -126 64 -188 7 -116 -31 -218 -112 -299 -56 -56 -100
-82 -171 -103 -67 -19 -3209 -21 -3278 -2 -26 8 -52 15 -57 16 -54 13 -151 98
-191 168 -64 108 -66 260 -7 374 19 36 87 113 124 140 19 15 88 46 108 50 9 2
16 4 16 5 0 1 27 4 60 7 33 2 61 5 62 6 5 6 3094 -2 3123 -7z m39 -1808 c91
-28 201 -117 242 -197 62 -121 57 -264 -15 -386 -26 -44 -81 -100 -118 -121
-44 -25 -93 -46 -113 -48 -12 -1 -25 -5 -30 -8 -6 -3 -729 -6 -1609 -6 -1478
1 -1603 2 -1655 18 -31 9 -67 23 -80 31 -50 29 -130 105 -130 123 1 5 -3 12
-8 15 -14 11 -40 65 -49 101 -9 42 -13 171 -5 185 3 6 6 15 7 22 5 33 57 123
93 160 38 39 123 97 146 98 5 1 17 4 25 8 8 3 26 8 40 10 43 7 3234 2 3259 -5z
m-5 -1802 c90 -22 203 -112 247 -198 52 -101 57 -239 12 -337 -18 -40 -69
-110 -93 -127 -8 -7 -26 -21 -39 -33 -13 -11 -49 -31 -80 -43 l-56 -23 -1620
-2 -1620 -3 -63 23 c-35 13 -72 31 -83 40 -10 9 -22 17 -25 17 -25 0 -130 154
-138 202 -1 7 -4 18 -7 23 -10 18 -3 149 10 193 22 79 74 153 143 204 35 27
138 73 138 62 0 -3 7 -1 16 4 18 10 3215 8 3258 -2z"/>
<path d="M11385 14066 c-33 -6 -63 -13 -67 -14 -5 -1 -9 -2 -10 -3 -2 0 -18
-2 -37 -5 -19 -2 -40 -9 -48 -15 -7 -6 -13 -9 -13 -5 0 3 -16 0 -35 -8 -20 -9
-36 -15 -38 -15 -12 2 -226 -98 -237 -110 -3 -3 -29 -22 -57 -41 -29 -19 -53
-38 -53 -42 0 -5 -5 -8 -12 -8 -14 0 -228 -216 -228 -230 0 -5 -6 -15 -13 -22
-14 -15 -38 -51 -67 -102 -11 -20 -29 -52 -40 -71 -11 -20 -20 -42 -20 -50 0
-8 -5 -15 -12 -15 -6 0 -8 -3 -5 -7 4 -3 3 -11 -2 -17 -7 -10 -30 -71 -38
-103 -2 -7 -5 -21 -7 -30 -3 -10 -5 -24 -5 -31 -1 -7 -5 -10 -11 -7 -5 3 -8 0
-5 -7 3 -7 -1 -40 -8 -73 -7 -33 -12 -77 -12 -97 0 -21 -2 -38 -5 -38 -8 0 -4
-6440 4 -6505 4 -33 10 -63 12 -66 2 -4 6 -24 10 -45 3 -22 9 -46 13 -54 4 -8
7 -22 6 -30 0 -8 2 -17 5 -20 5 -5 38 -92 43 -115 6 -24 99 -194 117 -213 11
-12 20 -25 20 -29 0 -14 52 -74 135 -157 96 -97 116 -114 175 -152 25 -16 47
-32 50 -36 7 -8 195 -102 235 -116 17 -5 39 -13 50 -18 47 -17 137 -38 220
-51 65 -10 5617 -10 5670 0 112 21 124 24 128 27 1 1 15 4 32 6 16 3 34 9 40
13 5 5 24 11 40 15 17 4 58 21 93 37 35 16 68 29 73 29 5 0 9 4 9 9 0 5 10 11
23 15 12 3 31 12 42 20 11 9 57 42 102 75 105 77 240 214 267 272 5 10 13 19
18 19 4 0 8 7 8 15 0 8 4 15 9 15 10 0 130 234 134 260 2 8 5 20 9 25 3 6 9
26 13 45 4 19 10 39 13 45 3 5 7 16 8 25 1 8 5 31 9 50 14 67 16 86 20 183 2
54 6 101 9 104 3 3 1 14 -5 24 -7 13 -6 19 1 19 7 0 8 6 1 19 -6 10 -8 21 -4
24 8 8 8 85 0 93 -3 4 -2 15 3 25 6 10 6 20 2 23 -5 3 -5 30 -2 60 3 31 3 56
-2 56 -4 0 -3 11 2 25 5 13 6 26 1 29 -4 3 -5 28 -1 56 4 27 3 50 -2 50 -4 0
-3 11 2 25 5 13 5 27 1 29 -5 3 -5 23 -1 45 4 22 4 45 -1 52 -4 7 -3 21 2 30
6 12 5 20 -1 24 -6 4 -8 10 -5 15 8 14 9 165 1 179 -4 6 -2 11 4 11 7 0 8 6 0
19 -7 13 -7 22 0 26 7 4 7 13 0 26 -8 13 -7 19 0 19 7 0 8 6 1 19 -6 10 -8 21
-4 24 8 8 8 85 0 93 -3 4 -2 15 3 25 6 10 6 20 2 23 -5 3 -5 30 -2 60 3 31 3
56 -2 56 -4 0 -3 11 2 25 5 13 6 26 1 29 -4 3 -5 28 -1 56 4 27 3 50 -2 50 -4
0 -3 11 2 25 5 13 5 27 1 29 -5 3 -5 23 -1 45 4 22 4 45 -1 52 -4 7 -3 21 2
30 6 12 5 20 -1 24 -6 4 -8 10 -5 15 8 14 9 165 1 179 -4 6 -2 11 4 11 7 0 8
6 0 19 -7 13 -7 22 0 26 7 4 7 13 0 26 -8 13 -7 19 0 19 7 0 8 6 1 19 -6 10
-8 21 -4 24 8 8 8 85 0 93 -3 4 -2 15 3 25 6 10 6 20 2 23 -5 3 -5 30 -2 60 3
31 3 56 -2 56 -4 0 -3 11 2 25 5 13 6 26 1 29 -4 3 -5 28 -1 56 4 27 3 50 -2
50 -4 0 -3 11 2 25 5 13 6 26 1 29 -8 5 -5 71 4 86 3 6 2 10 -4 10 -7 0 -7 8
-2 23 5 13 5 30 0 39 -6 10 -6 19 0 23 7 3 7 15 1 30 -6 15 -6 27 0 30 7 4 6
13 0 26 -8 13 -7 19 0 19 7 0 8 6 1 19 -6 10 -8 21 -4 25 8 8 7 162 -2 175 -3
6 -1 11 5 11 7 0 8 6 0 19 -7 13 -7 22 0 26 7 4 7 13 0 26 -8 13 -7 19 0 19 7
0 8 6 1 18 -6 11 -6 24 0 34 6 10 6 19 0 23 -7 4 -7 15 -1 30 6 16 6 25 0 25
-6 0 -6 9 -1 23 5 13 5 30 0 39 -6 10 -6 19 0 23 7 3 7 15 1 30 -6 15 -6 27 0
30 7 4 6 13 0 26 -8 13 -7 19 0 19 7 0 8 6 1 19 -6 10 -8 21 -4 25 8 8 7 162
-2 175 -3 6 -1 11 5 11 7 0 8 6 0 19 -7 13 -7 22 0 26 7 4 7 13 0 26 -8 13 -7
19 0 19 7 0 8 6 1 18 -6 11 -6 24 0 34 6 10 6 19 0 23 -7 4 -7 15 -1 30 6 16
6 25 0 25 -6 0 -6 9 -1 23 5 13 5 30 0 39 -6 10 -6 19 0 23 7 3 7 15 1 30 -6
15 -6 27 0 30 7 4 6 13 0 26 -8 13 -7 19 0 19 7 0 8 6 1 19 -6 10 -8 21 -4 25
8 8 7 162 -2 175 -3 6 -1 11 5 11 7 0 8 6 0 19 -7 13 -7 22 0 26 7 4 7 13 0
26 -8 13 -7 19 0 19 7 0 8 6 1 18 -6 11 -6 24 0 34 6 10 6 19 0 23 -7 4 -7 15
-1 30 6 16 6 25 0 25 -6 0 -6 9 -1 23 5 13 5 30 0 39 -6 10 -6 19 0 23 7 3 7
15 1 30 -6 15 -6 27 0 30 7 4 6 13 0 26 -8 13 -7 19 0 19 7 0 8 6 1 19 -6 10
-8 21 -4 25 8 8 7 162 -2 175 -3 6 -1 11 5 11 7 0 8 6 0 19 -7 13 -7 22 0 26
7 4 7 13 0 26 -8 13 -7 19 0 19 7 0 8 6 1 19 -6 10 -8 21 -5 24 9 8 10 97 2
97 -4 0 -3 11 2 25 5 13 6 26 1 29 -4 3 -5 28 -1 56 4 27 3 50 -2 50 -4 0 -3
11 2 25 5 13 5 27 1 29 -5 3 -5 23 -1 45 4 22 4 45 -1 52 -4 7 -3 21 2 30 6
12 5 20 -1 24 -6 4 -8 10 -5 15 8 14 9 165 1 179 -4 6 -2 11 4 11 7 0 8 6 0
19 -7 13 -7 22 0 26 7 4 7 13 0 26 -8 13 -7 19 0 19 7 0 8 6 1 19 -6 10 -8 21
-4 24 8 8 8 85 0 93 -3 4 -2 15 3 25 6 10 6 20 2 23 -5 3 -5 30 -2 60 3 31 3
56 -2 56 -4 0 -3 11 2 25 5 13 6 26 1 29 -4 3 -5 28 -1 56 4 27 3 50 -2 50 -4
0 -3 11 2 25 6 15 6 26 -1 30 -5 4 -7 11 -3 16 3 5 7 42 9 83 7 158 54 308
140 446 54 88 58 93 155 190 153 153 332 255 655 376 11 4 27 9 35 10 8 2 42
12 75 23 59 19 20 19 -3860 19 -2971 0 -3935 -3 -3980 -12z m4470 -2217 c33
-1 65 -5 70 -8 6 -3 19 -7 29 -8 32 -5 99 -46 146 -90 78 -73 124 -181 121
-288 -2 -56 -38 -185 -52 -185 -5 0 -9 -6 -9 -13 0 -18 -74 -93 -120 -122 -20
-13 -59 -31 -86 -41 -46 -17 -142 -18 -1649 -19 -1708 -2 -1642 -3 -1740 46
-97 49 -181 162 -199 269 -3 14 -5 27 -6 30 -6 16 1 88 15 155 6 32 60 127 85
151 88 85 153 114 272 122 85 6 2983 7 3123 1z m66 -1810 c19 -6 41 -13 49
-16 8 -3 21 -7 28 -9 16 -3 79 -50 112 -83 66 -67 107 -160 110 -254 1 -23 1
-44 0 -47 -1 -3 -3 -21 -6 -42 -9 -88 -94 -209 -185 -261 -98 -57 -5 -54
-1737 -54 -1574 -1 -1602 0 -1664 20 -35 11 -72 28 -84 38 -11 11 -24 19 -28
19 -19 0 -96 92 -117 140 -6 14 -16 35 -21 47 -6 12 -10 33 -10 47 0 15 -4 28
-7 31 -10 6 -3 90 14 155 13 53 68 142 109 177 14 12 43 34 65 47 89 57 12 54
1742 55 1125 1 1606 -2 1630 -10z m35 -1812 c115 -38 232 -159 247 -256 3 -15
10 -38 16 -49 7 -13 7 -23 1 -27 -5 -3 -6 -15 -1 -28 12 -32 -22 -160 -59
-217 -37 -58 -83 -100 -141 -130 -24 -13 -53 -28 -64 -34 -14 -8 -506 -12
-1645 -13 l-1625 -3 -60 22 c-78 27 -100 42 -157 101 -43 45 -96 127 -82 127
4 0 2 6 -4 13 -9 11 -28 122 -24 139 1 4 4 24 6 45 7 53 31 116 58 155 29 40
128 135 128 122 0 -4 7 -1 15 6 9 7 39 21 67 30 47 15 183 16 1662 15 1472 -1
1615 -3 1662 -18z"/>
</g>
</svg>
